<svg fill="#000000" viewBox="0 0 1024 1024" xmlns="http://www.w3.org/2000/svg">
  <g id="SVGRepo_bgCarrier" stroke-width="0"></g>
  <g id="SVGRepo_tracerCarrier" stroke-linecap="round" stroke-linejoin="round"></g>
  <g id="SVGRepo_iconCarrier">
    <path d="M421.5 638.7l-36.2-36.2 217.2-217.2 36.2 36.2-217.2 217.2zm126.7-54.3L421.5 711.1 312.8 602.4l126.7-126.7-36.1-36.1-126.7 126.7-36.2 36.2 144.8 144.8 36.1 36.1.1.1 36.2-36.2-.1-.1 126.7-126.7-36.1-36.1zm235.3-162.9l-36.2-36.2-144.8-144.8-36.2 36.2-126.7 126.7 36.1 36.1 126.7-126.7 108.7 108.7-126.7 126.7 36.1 36.1 126.7-126.7.1.1 36.2-36.2z"></path>
  </g>
</svg>