<?xml version="1.0" standalone="no"?>
<!DOCTYPE svg PUBLIC "-//W3C//DTD SVG 20010904//EN"
 "http://www.w3.org/TR/2001/REC-SVG-20010904/DTD/svg10.dtd">
<svg version="1.0" xmlns="http://www.w3.org/2000/svg"
 width="2000.000000pt" height="2000.000000pt" viewBox="0 0 2000.000000 2000.000000"
 preserveAspectRatio="xMidYMid meet">
<metadata>
Created by potrace 1.14, written by Peter Selinger 2001-2017
</metadata>
<g transform="translate(0.000000,2000.000000) scale(0.100000,-0.100000)"
fill="#000000" stroke="none">
<path d="M959 16221 c-89 -18 -180 -81 -237 -164 -65 -93 -65 -99 -68 -570 -2
-352 1 -438 13 -485 8 -31 19 -63 25 -69 6 -7 7 -13 4 -13 -12 0 36 -62 84
-109 48 -48 122 -86 191 -99 24 -5 1455 -8 3179 -8 l3136 1 -2 -3250 c-1
-1787 -5 -3280 -7 -3317 -6 -81 -15 -183 -23 -258 -6 -57 -48 -326 -58 -370
-3 -14 -11 -50 -17 -80 -31 -154 -120 -441 -175 -567 -8 -17 -14 -34 -14 -37
0 -3 -28 -63 -62 -133 -60 -124 -168 -311 -232 -403 -105 -151 -297 -364 -416
-463 -25 -20 -52 -43 -60 -51 -40 -38 -277 -187 -370 -233 -145 -70 -163 -78
-265 -114 -181 -64 -398 -116 -565 -135 -30 -3 -64 -8 -75 -10 -114 -23 -651
-23 -820 0 -16 2 -55 7 -85 11 -96 11 -189 24 -210 30 -8 2 -31 7 -50 10 -187
32 -495 128 -688 216 -34 16 -64 29 -67 29 -10 0 -223 126 -283 167 -398 274
-682 647 -819 1073 -26 81 -69 244 -78 299 -3 19 -7 37 -9 40 -2 3 -7 33 -11
66 -3 32 -8 62 -10 65 -1 3 -6 37 -10 75 -10 104 -12 116 -24 162 -36 132
-129 256 -229 304 -90 43 -141 46 -699 46 -472 0 -534 -2 -585 -18 -171 -51
-268 -197 -262 -394 3 -133 19 -307 41 -455 8 -58 16 -114 18 -125 1 -11 7
-45 14 -75 14 -68 20 -96 27 -135 3 -16 12 -55 20 -85 20 -74 23 -87 28 -108
10 -43 97 -294 131 -377 77 -187 207 -429 324 -600 52 -76 134 -187 156 -211
5 -7 26 -31 45 -55 70 -87 207 -230 325 -340 146 -133 459 -357 665 -474 166
-94 571 -285 605 -285 4 0 21 -6 38 -14 136 -62 586 -189 857 -241 58 -11 80
-15 170 -30 52 -8 104 -17 115 -19 11 -2 49 -7 85 -11 36 -3 76 -8 90 -10 14
-3 57 -7 95 -11 39 -3 88 -8 110 -10 267 -24 978 -24 1100 1 11 2 54 7 95 10
41 2 84 7 95 9 11 2 51 7 90 11 38 4 72 8 75 10 3 2 29 6 59 10 30 4 63 9 75
11 12 3 46 9 76 15 277 50 610 147 866 252 302 124 641 316 866 490 44 34 92
71 107 82 142 103 446 409 600 605 28 36 55 70 61 77 30 36 187 275 252 383
182 307 361 731 452 1072 14 51 27 100 30 108 3 8 7 26 10 40 2 14 9 45 16 70
7 25 14 54 16 65 2 11 6 31 9 45 3 14 7 36 10 50 3 14 7 36 10 50 2 14 7 41
10 60 3 19 8 42 10 50 2 8 6 35 9 60 3 25 8 54 10 65 2 12 7 48 11 80 4 33 9
71 11 85 2 14 6 59 10 100 3 41 7 85 9 98 17 106 20 744 20 4162 l0 3905 -23
56 c-45 111 -110 176 -221 221 l-56 23 -3870 1 c-2128 1 -3886 -1 -3906 -5z"/>
<path d="M12270 16216 c-139 -40 -218 -116 -260 -254 -20 -63 -20 -119 -20
-5868 0 -3888 3 -5819 10 -5849 32 -143 139 -253 278 -285 71 -16 1034 -17
1105 -1 115 27 213 105 266 213 17 35 33 81 35 103 2 22 5 1114 5 2428 l1
2387 2793 0 c3028 0 2832 -3 2937 50 59 30 130 108 164 179 l31 66 2 440 c2
270 -1 457 -8 484 -33 147 -156 268 -299 297 -19 4 -1290 8 -2825 8 l-2790 1
-3 2043 c-1 1123 1 2042 5 2043 5 0 1345 2 2978 3 1634 2 2984 6 3000 10 101
24 209 104 251 187 42 84 45 123 44 563 0 343 -3 430 -16 479 -25 99 -90 185
-173 230 -112 61 182 57 -3816 56 -2942 0 -3659 -3 -3695 -13z"/>
</g>
</svg>
